<svg xmlns="http://www.w3.org/2000/svg" version="1.1" xmlns:xlink="http://www.w3.org/1999/xlink" xmlns:svgjs="http://svgjs.com/svgjs" height="50" width="161.94977484809027"><g id="SvgjsG1338" rel="mainfill" name="main_text" xmlns:name="mainText_mainfill" transform="translate(46.029777632819275,-9.808002471923828)"><path fill="#ffffff" d="M15.732 39.146 l5.198 1.058 c-1.15 3.772 -3.726 6.44 -8.97 6.44 c-6.854 0 -10.212 -4.186 -10.212 -11.362 c0 -8.464 4.692 -11.27 10.396 -11.27 c5.244 0 9.154 2.484 8.648 7.13 l-5.75 1.104 c0.23 -2.852 -1.104 -3.818 -2.852 -3.818 c-3.496 0 -4.416 3.588 -4.416 7.13 c0 4.646 1.61 6.67 4.232 6.67 c2.07 0 3.404 -1.334 3.726 -3.082 z M38.732 46 l0 -13.064 c0 -2.76 -0.828 -4.002 -2.622 -4.002 c-3.404 0 -4.83 4.692 -5.244 6.486 l0 10.58 l-5.75 0 l0 -33.028 l5.75 0 l0 14.72 c0.874 -1.472 2.806 -3.68 6.808 -3.68 c3.496 0 6.808 1.518 6.808 7.406 l0 14.582 l-5.75 0 z M68.908 36.662 l-13.892 0 c0.184 3.266 1.196 5.566 4.692 5.566 c2.438 0 3.542 -0.966 4.14 -2.484 l5.06 1.058 c-1.15 3.818 -4.094 5.842 -9.292 5.842 c-6.808 0 -10.672 -3.588 -10.672 -11.316 c0 -5.658 2.53 -11.316 10.58 -11.316 c6.118 0 9.384 3.45 9.384 10.212 l0 2.438 z M59.432 28.428 c-2.484 0 -3.864 0.966 -4.324 4.186 l7.774 0 l0 -0.368 c0 -2.116 -0.828 -3.818 -3.45 -3.818 z M86.388 39.146 l5.198 1.058 c-1.15 3.772 -3.726 6.44 -8.97 6.44 c-6.854 0 -10.212 -4.186 -10.212 -11.362 c0 -8.464 4.692 -11.27 10.396 -11.27 c5.244 0 9.154 2.484 8.648 7.13 l-5.75 1.104 c0.23 -2.852 -1.104 -3.818 -2.852 -3.818 c-3.496 0 -4.416 3.588 -4.416 7.13 c0 4.646 1.61 6.67 4.232 6.67 c2.07 0 3.404 -1.334 3.726 -3.082 z M105.294 46.644 c-7.912 0 -10.626 -5.014 -10.626 -11.316 s2.714 -11.316 10.626 -11.316 s10.626 4.922 10.626 11.316 s-2.714 11.316 -10.626 11.316 z M105.294 42.228 c3.68 0 4.6 -3.358 4.6 -6.9 s-0.92 -6.9 -4.6 -6.9 s-4.6 3.358 -4.6 6.9 s0.92 6.9 4.6 6.9 z"></path></g><defs id="SvgjsDefs1337"></defs><g id="SvgjsG1339" fill="#ffffff" rel="mainfill" name="symbol" xmlns:name="symbol_mainfill" transform="translate(-8.888887829250763,-2.7777777777777777) scale(0.5555555555555556)"><path xmlns="http://www.w3.org/2000/svg" d="m30.8 95c-8.2 0-14.8-6.7-14.8-14.9 0-7.1 5-13 11.6-14.5v-31.3c-6.7-1.5-11.6-7.4-11.6-14.4 0-8.2 6.6-14.9 14.8-14.9s14.9 6.7 14.9 14.9c0 2-.4 4-1.2 5.8-.7 1.7-2.6 2.4-4.3 1.7-1.7-.7-2.4-2.6-1.7-4.3.4-1 .7-2.1.7-3.2 0-4.6-3.7-8.3-8.3-8.3s-8.3 3.7-8.3 8.3 3.7 8.3 8.3 8.3c1.8 0 3.3 1.5 3.3 3.3v37.1c0 1.8-1.5 3.3-3.3 3.3-4.6 0-8.3 3.7-8.3 8.3s3.7 8.3 8.3 8.3 8.3-3.7 8.3-8.3c0-2.1-.8-4.1-2.2-5.6-.4-.4-.8-1-.9-1.6-.1-.3-.1-.6-.1-.8 0-19.4 10-22.9 18.1-25.7 6.4-2.2 10.9-3.8 11.7-12.2-6.6-1.5-11.5-7.4-11.5-14.5 0-8.1 6.7-14.8 14.9-14.8 8.2 0 14.8 6.7 14.8 14.9 0 2.6-.7 5.2-2 7.4-.9 1.6-2.9 2.1-4.5 1.2-1.6-.9-2.1-2.9-1.2-4.5.7-1.3 1.1-2.7 1.1-4.2 0-4.6-3.7-8.3-8.3-8.3s-8.3 3.7-8.3 8.3 3.7 8.3 8.3 8.3c1.8 0 3.3 1.5 3.3 3.3 0 15.6-9 18.7-16.2 21.2-7.5 2.6-13.4 4.7-13.7 18.3 2.1 2.6 3.2 5.8 3.2 9.2 0 8.2-6.7 14.9-14.9 14.9"></path></g></svg>